PathFileType        4      (X/Y/Z)      Abduction.trc         																																																																												
DataRate	CameraRate	NumFrames	NumMarkers	Units	OrigDataRate	OrigDataStartFrame	OrigNumFrames																																																																					
100	100	7	25	mm	100	1	1991																																																																					
Frame#	Time	AA			AI			Ant_Sh			CV7			GH			LAH			Lat_Sh			LCAJ			LPH			Post_Sh			RAH			RCAJ			RHLE			RHME			RPH			RUA			SJN			SXS			TS			TV8			centelbow			centpxt8			centijc7			centLPHRPH			ScapulaThoracicContactPt		
		X1	Y1	Z1	X2	Y2	Z2	X3	Y3	Z3	X4	Y4	Z4	X5	Y5	Z5	X6	Y6	Z6	X7	Y7	Z7	X8	Y8	Z8	X9	Y9	Z9	X10	Y10	Z10	X11	Y11	Z11	X12	Y12	Z12	X13	Y13	Z13	X14	Y14	Z14	X15	Y15	Z15	X16	Y16	Z16	X17	Y17	Z17	X18	Y18	Z18	X19	Y19	Z19	X20	Y20	Z20	X21	Y21	Z21	X22	Y22	Z22	X23	Y23	Z23	X24	Y24	Z24	X25	Y25	Z25
1	0	-457.8807678	1521.968994	5.682011604	-515.4442749	1352.371582	-65.36642456	-345.1445923	1493.074219	0.571429074	-471.8761902	1596.048584	-192.509613	-401.8561401	1489.765991	1.76297152	-256.5787048	1771.854004	-249.5326538	-402.1595764	1506.450562	33.64312744	-413.9017944	1565.18103	-377.2450867	-462.5295715	1728.531982	-241.2405853	-484.205719	1484.96228	3.493182659	-252.698288	1770.10437	-152.4129944	-403.9807739	1556.277466	-24.31819534	-379.5100098	1215.522827	111.5597458	-399.7030029	1167.115601	1.418578982	-450.9002686	1731.960693	-125.9246979	-470.5912781	1335.367676	50.96139145	-305.0811157	1510.94397	-200.1908569	-245.7238159	1338.851807	-204.2717896	-517.8180542	1493.710205	-103.7199936	-484.5755005	1306.359741	-198.1287689	-389.6065063	1191.319214	56.48916239	-365.1496582	1322.605774	-201.2002792	-388.478653	1553.496277	-196.350235	-456.71492	1730.246338	-183.5826416	-497.047699	1456.016927	-54.46813552
2	0.01	-457.8237305	1521.936035	5.693457127	-515.3704834	1352.386597	-65.30982208	-345.1494141	1492.996826	0.55725342	-471.8300171	1596.030884	-192.5041504	-401.8332214	1489.72168	1.776696324	-256.5745544	1771.819092	-249.4928589	-402.1107483	1506.4198	33.72555542	-414.5533752	1563.942139	-377.7779541	-462.4600525	1728.578247	-241.2510834	-484.1689758	1484.964355	3.54798913	-252.6442566	1770.109131	-152.3595734	-403.9488525	1556.265747	-24.28534126	-379.461853	1215.496216	111.5749359	-399.3457031	1167.181641	1.43295598	-450.8997803	1731.952026	-125.9056702	-470.5556946	1335.336792	50.98146439	-304.0899048	1511.631348	-200.299469	-245.6978912	1338.848022	-204.2797546	-517.7526855	1493.697632	-103.6682281	-484.5193787	1306.372314	-198.1412506	-389.4037781	1191.338928	56.50394595	-365.1086349	1322.610168	-201.2105026	-387.9599609	1553.831116	-196.4018097	-456.6799164	1730.265137	-183.5783768	-496.9822998	1456.006755	-54.4281977
3	0.02	-457.7858887	1521.946289	5.748723984	-515.3495483	1352.35437	-65.27127838	-345.1034851	1493.003784	0.619854212	-471.8069458	1596.030762	-192.4526825	-401.8213501	1489.706055	1.823476553	-256.515625	1771.808838	-249.4440155	-402.1143188	1506.387695	33.72257614	-414.5202332	1563.905884	-377.7460022	-462.4771729	1728.536621	-241.1898193	-484.1671753	1484.918335	3.570953846	-252.6285248	1770.078125	-152.301178	-403.9220276	1556.221924	-24.23922539	-379.4642334	1215.478271	111.5980682	-399.5227966	1167.199951	1.432408929	-450.8631592	1731.953491	-125.8738403	-470.5173645	1335.313721	51.01271057	-304.0761414	1511.631104	-200.2470551	-245.6318665	1338.827881	-204.2213593	-517.7332764	1493.663818	-103.6509018	-484.5222473	1306.386597	-198.1034698	-389.493515	1191.339111	56.51523858	-365.0770569	1322.607239	-201.1624146	-387.9415436	1553.830933	-196.3498688	-456.670166	1730.245056	-183.5318298	-496.9562378	1455.988159	-54.39115206
4	0.03	-458.1253967	1522.111328	6.439796925	-515.3184814	1352.335571	-65.28351593	-345.1058655	1492.923706	0.599804103	-472.0915833	1595.876465	-192.2695312	-401.8703308	1489.652954	1.839072227	-256.512207	1771.854492	-248.8982697	-402.1494446	1506.430664	33.33426285	-415.1037292	1563.463745	-377.5366821	-462.4174805	1728.558472	-241.1936188	-484.1101074	1484.914307	3.634510994	-251.7993011	1771.067749	-152.0614624	-403.5266113	1556.752563	-24.08209991	-379.5684509	1215.07605	111.7974396	-399.5956116	1167.06665	1.454452872	-451.7339478	1731.408813	-125.4420929	-470.4998779	1335.288086	51.01410294	-304.0757141	1511.622925	-200.2386169	-245.6157532	1338.861206	-204.1903687	-517.7131348	1493.659668	-103.675499	-484.4662781	1306.359619	-198.0336914	-389.5820312	1191.07135	56.62594622	-365.0410156	1322.610413	-201.11203	-388.0836487	1553.749695	-196.2540741	-457.0757141	1729.983643	-183.3178558	-497.0523376	1456.035522	-54.17307266
5	0.04	-458.1529846	1522.088135	6.480648994	-515.2785645	1352.322021	-65.28682709	-345.684967	1493.016602	0.259379834	-472.0671997	1595.852661	-192.2399445	-401.9396973	1489.7146	1.631914973	-256.4909668	1771.850464	-248.8345032	-402.145874	1506.406738	33.3405304	-415.0833435	1563.448853	-377.4934387	-462.4031372	1728.555054	-241.1764832	-484.1130981	1484.890991	3.636823654	-251.7851715	1771.041016	-151.9860535	-403.5114746	1556.729492	-24.04177094	-379.554718	1215.081543	111.8154907	-399.3939819	1167.180298	1.461456418	-451.7674255	1731.397217	-125.405159	-470.468689	1335.277588	51.03636551	-304.0858459	1511.634277	-200.245285	-245.5700226	1338.856201	-204.1169891	-517.6960449	1493.650391	-103.608345	-484.4351501	1306.337646	-198.0661011	-389.47435	1191.13092	56.63847357	-365.0025864	1322.596924	-201.0915451	-388.0765228	1553.743469	-196.2426147	-457.0852814	1729.976135	-183.2908211	-497.0425313	1456.020182	-54.13817437
6	0.05	-458.0574646	1522.609375	7.160241127	-515.3027344	1352.32019	-65.28990173	-344.815094	1492.781128	0.678554118	-472.0985718	1596.28418	-191.9204407	-401.9124146	1489.565186	1.93190062	-256.3709106	1771.707764	-248.6905212	-402.1563416	1506.184326	33.46219635	-414.4978333	1564.164551	-377.2459106	-461.9633179	1728.873169	-241.1009216	-484.0697937	1484.937866	3.735338211	-251.3291779	1770.94104	-152.0440674	-403.5619202	1556.588013	-23.95910454	-378.322113	1215.512451	111.8379898	-399.3641968	1167.174438	1.45669353	-452.2602234	1731.691895	-125.028801	-470.4485474	1335.248169	51.1115303	-304.4935913	1510.938721	-200.2186279	-245.6105499	1338.783325	-204.1018524	-517.6539917	1493.645264	-103.5215912	-484.3470764	1306.30603	-198.0450134	-388.8431549	1191.343445	56.64734167	-364.9788132	1322.544678	-201.0734329	-388.2960815	1553.61145	-196.0695343	-457.1117706	1730.282532	-183.0648613	-497.0047302	1456.19161	-53.8837506
7	0.06	-457.979126	1522.502686	7.033101082	-515.2828979	1352.330933	-65.27842712	-345.6025085	1492.868408	0.343760908	-472.005127	1596.008545	-192.165802	-401.9648743	1489.639038	1.732501149	-256.3817444	1771.767944	-248.7456055	-402.1273499	1506.146973	33.52520752	-414.8946228	1563.583618	-377.4742432	-462.1113586	1728.723267	-241.3402252	-484.0458679	1484.936279	3.754926443	-251.5831146	1770.946899	-152.0517426	-403.5713806	1556.594238	-23.99577332	-379.046936	1215.20752	111.7235794	-399.7369995	1167.039307	1.471628666	-452.0606995	1731.620361	-125.2738953	-470.4187927	1335.271118	51.12905884	-303.992218	1511.450806	-200.2907257	-245.5151825	1338.81311	-204.0694427	-517.6282349	1493.689331	-103.5151367	-484.3032837	1306.305542	-197.9903259	-389.3919678	1191.123413	56.59760404	-364.9092331	1322.559326	-201.0298843	-387.9986725	1553.729675	-196.2282639	-457.0860291	1730.171814	-183.3070602	-496.9634196	1456.174316	-53.92015425
